<?xml version="1.0" encoding="UTF-8"?>
<svg xmlns="http://www.w3.org/2000/svg" xmlns:xlink="http://www.w3.org/1999/xlink" width="375pt" height="374.999991pt" viewBox="0 0 375 374.999991" version="1.2">
<defs>
<clipPath id="clip1">
  <path d="M 50 317 L 53 317 L 53 318.960938 L 50 318.960938 Z M 50 317 "/>
</clipPath>
<clipPath id="clip2">
  <path d="M 13 317 L 16 317 L 16 318.960938 L 13 318.960938 Z M 13 317 "/>
</clipPath>
<clipPath id="clip3">
  <path d="M 32 316 L 33 316 L 33 318.960938 L 32 318.960938 Z M 32 316 "/>
</clipPath>
<clipPath id="clip4">
  <path d="M 2.234375 112.394531 L 372.765625 112.394531 L 372.765625 318.960938 L 2.234375 318.960938 Z M 2.234375 112.394531 "/>
</clipPath>
<clipPath id="clip5">
  <path d="M 51 26 L 328.257812 26 L 328.257812 241 L 51 241 Z M 51 26 "/>
</clipPath>
<clipPath id="clip6">
  <path d="M 90 210 L 282 210 L 282 351.183594 L 90 351.183594 Z M 90 210 "/>
</clipPath>
</defs>
<g id="surface1">
<g clip-path="url(#clip1)" clip-rule="nonzero">
<path style=" stroke:none;fill-rule:nonzero;fill:rgb(94.509888%,71.759033%,77.648926%);fill-opacity:1;" d="M 50.375 318.378906 C 51.191406 316.617188 52.046875 317.347656 52.902344 318.34375 C 52.0625 318.355469 51.21875 318.367188 50.375 318.378906 "/>
</g>
<g clip-path="url(#clip2)" clip-rule="nonzero">
<path style=" stroke:none;fill-rule:nonzero;fill:rgb(94.509888%,71.759033%,77.648926%);fill-opacity:1;" d="M 13.183594 318.867188 C 14.425781 317.332031 14.644531 317.332031 15.347656 318.839844 C 14.628906 318.851562 13.902344 318.859375 13.183594 318.867188 "/>
</g>
<path style=" stroke:none;fill-rule:nonzero;fill:rgb(94.509888%,71.759033%,77.648926%);fill-opacity:1;" d="M 167.890625 286.496094 C 167.390625 288.347656 164.585938 290.292969 162.734375 290.511719 C 160.699219 290.757812 158.46875 290.707031 157.1875 292.949219 C 156.515625 294.121094 155.191406 293.269531 154.667969 292.902344 C 153.855469 292.328125 154.878906 291.636719 155.359375 291.277344 C 156.582031 290.355469 157.519531 288.746094 159.488281 289.351562 C 159.644531 289.394531 160.023438 289.058594 160.152344 288.824219 C 160.632812 287.90625 161.191406 287.816406 162.167969 288.199219 C 163.285156 288.632812 164.28125 287.785156 165.046875 287.144531 C 165.925781 286.410156 166.78125 286.355469 167.890625 286.496094 "/>
<path style=" stroke:none;fill-rule:nonzero;fill:rgb(94.509888%,71.759033%,77.648926%);fill-opacity:1;" d="M 226.757812 287.625 C 226.597656 289.636719 224.640625 288.980469 223.570312 289.394531 C 222.121094 289.945312 222.285156 290.4375 223.019531 291.246094 C 223.476562 291.742188 223.839844 292.316406 223.273438 292.660156 C 222.839844 292.917969 221.914062 292.972656 221.582031 292.152344 C 220.792969 290.222656 219.65625 290.855469 218.652344 291.820312 C 218.050781 292.398438 217.558594 292.558594 216.953125 292.046875 C 216.042969 291.28125 215.5625 292.355469 214.722656 292.597656 C 215.011719 291.246094 216.082031 290.910156 216.914062 290.335938 C 217.554688 289.902344 217.542969 290.363281 217.613281 290.789062 C 217.683594 291.230469 218.027344 291.25 218.246094 291.023438 C 218.4375 290.828125 218.957031 290.945312 218.828125 290.539062 C 218.765625 290.324219 218.796875 289.847656 218.410156 289.902344 C 217.117188 290.074219 218.046875 289.042969 217.730469 288.695312 C 218.167969 288.570312 218.039062 287.867188 218.953125 287.996094 C 219.90625 288.132812 221.351562 288.386719 222.113281 286.917969 C 222.386719 286.382812 223.398438 285.921875 223.875 287.125 C 224.5625 288.84375 225.753906 286.980469 226.757812 287.625 "/>
<path style=" stroke:none;fill-rule:nonzero;fill:rgb(94.509888%,71.759033%,77.648926%);fill-opacity:1;" d="M 232.972656 258.578125 C 233.445312 258.980469 233.964844 258.78125 234.074219 259.285156 C 234.300781 260.3125 235.046875 260.050781 235.554688 259.777344 C 236.5 259.253906 237 259.707031 237.375 260.4375 C 237.496094 260.675781 237.917969 260.984375 237.480469 261.359375 C 237.207031 261.597656 237.007812 261.515625 236.691406 261.441406 C 235.019531 261.054688 233.320312 260.875 231.667969 261.507812 C 231.226562 261.679688 231.046875 261.515625 230.734375 261.332031 C 230.148438 260.996094 229.660156 260.554688 228.84375 261.234375 C 228.160156 261.800781 227.664062 261.035156 227.304688 260.359375 C 226.902344 259.605469 227.214844 259.324219 227.890625 259.101562 C 228.328125 258.949219 228.898438 258.390625 229.113281 258.515625 C 231.632812 259.96875 232.558594 257.441406 234.085938 256.539062 C 234.597656 256.238281 234.914062 256.125 235.269531 256.496094 C 235.902344 257.160156 235.144531 257.0625 234.851562 257.363281 C 234.328125 257.898438 234.160156 258.8125 232.972656 258.578125 "/>
<path style=" stroke:none;fill-rule:nonzero;fill:rgb(94.509888%,71.759033%,77.648926%);fill-opacity:1;" d="M 163.414062 297.773438 C 162.578125 295.792969 161.707031 295.746094 160.660156 296.765625 C 160.347656 297.0625 160.074219 297.667969 159.5 297.152344 C 159.203125 296.886719 158.632812 296.574219 158.882812 296.179688 C 159.167969 295.71875 159.332031 295.089844 159.949219 294.855469 C 161.339844 294.347656 162.796875 294.925781 164.21875 294.535156 C 164.6875 294.410156 164.617188 295.171875 164.363281 295.492188 C 163.941406 296.019531 163.386719 296.4375 163.414062 297.773438 "/>
<path style=" stroke:none;fill-rule:nonzero;fill:rgb(94.509888%,71.759033%,77.648926%);fill-opacity:1;" d="M 206.457031 285.898438 C 206.230469 286.289062 206.605469 287.300781 205.640625 286.8125 C 204.882812 286.429688 204.742188 287.128906 204.351562 287.410156 C 204.128906 287.574219 204.101562 288.214844 203.867188 288.03125 C 202.15625 286.710938 202.328125 288.359375 201.828125 289.179688 C 201.519531 289.6875 200.738281 290.242188 200.160156 289.863281 C 199.417969 289.382812 200.300781 288.914062 200.46875 288.414062 C 201.539062 285.214844 204.527344 286.890625 206.457031 285.898438 "/>
<path style=" stroke:none;fill-rule:nonzero;fill:rgb(94.509888%,71.759033%,77.648926%);fill-opacity:1;" d="M 149.804688 295.484375 C 149.886719 294.597656 150.3125 294.113281 151.289062 294.40625 C 152.152344 294.660156 152.855469 294.65625 153.535156 293.910156 C 153.910156 293.496094 154.328125 293.8125 154.78125 294.140625 C 155.390625 294.582031 155.074219 294.835938 154.773438 295.105469 C 154.328125 295.507812 154.199219 295.894531 154.425781 296.496094 C 154.601562 296.949219 154.21875 297.121094 153.800781 297.085938 C 153.535156 297.0625 153.128906 297.21875 153.089844 296.777344 C 153.054688 296.363281 153.648438 295.574219 153.023438 295.613281 C 152.160156 295.664062 151.351562 295.132812 150.519531 295.484375 C 150.300781 295.578125 150.125 295.757812 149.804688 295.484375 "/>
<path style=" stroke:none;fill-rule:nonzero;fill:rgb(94.509888%,71.759033%,77.648926%);fill-opacity:1;" d="M 179.808594 294.730469 C 180.199219 294.421875 179.664062 293.398438 181.015625 293.628906 C 181.988281 293.792969 183.148438 292.867188 184.214844 292.398438 C 184.917969 292.101562 185.480469 292.496094 186.058594 292.757812 C 186.238281 292.828125 186.464844 293.160156 186.417969 293.289062 C 186.324219 293.546875 186.082031 293.828125 185.738281 293.738281 C 183.632812 293.21875 181.898438 294.589844 179.808594 294.730469 "/>
<path style=" stroke:none;fill-rule:nonzero;fill:rgb(94.509888%,71.759033%,77.648926%);fill-opacity:1;" d="M 173.496094 288.460938 C 172.707031 289.183594 172.480469 290.53125 171.117188 289.765625 C 171.074219 289.742188 170.6875 290.105469 170.695312 290.269531 C 170.753906 291.3125 169.816406 291.003906 169.351562 291.324219 C 169.1875 290.585938 168.609375 289.941406 168.875 289.113281 C 168.90625 289.007812 169.085938 288.847656 169.097656 288.855469 C 170.59375 289.949219 171.757812 287.628906 173.496094 288.460938 "/>
<path style=" stroke:none;fill-rule:nonzero;fill:rgb(94.509888%,71.759033%,77.648926%);fill-opacity:1;" d="M 316.757812 270.773438 C 317.582031 270.917969 318.410156 271.167969 319.226562 271.140625 C 319.476562 271.128906 321.128906 272.488281 320.34375 270.453125 C 320.292969 270.328125 321.050781 269.574219 321.199219 270.132812 C 321.542969 271.386719 322.753906 270.617188 323.292969 271.273438 C 323.363281 271.359375 323.820312 270.851562 323.863281 271.460938 C 323.890625 271.8125 323.753906 272.054688 323.378906 272.027344 C 321.136719 271.878906 318.804688 272.347656 316.757812 270.773438 "/>
<path style=" stroke:none;fill-rule:nonzero;fill:rgb(94.509888%,71.759033%,77.648926%);fill-opacity:1;" d="M 175.984375 291.726562 C 175.183594 291.753906 175.132812 291.042969 175 290.535156 C 174.699219 289.335938 175.742188 289.304688 176.449219 288.972656 C 177.242188 288.601562 177.335938 289.480469 177.308594 289.667969 C 177.175781 290.5 177.042969 291.421875 175.984375 291.726562 "/>
<path style=" stroke:none;fill-rule:nonzero;fill:rgb(94.509888%,71.759033%,77.648926%);fill-opacity:1;" d="M 169.308594 292.257812 C 168.660156 294.042969 168.230469 295.34375 166.535156 295.585938 C 166.105469 295.652344 165.609375 296.136719 165.382812 295.527344 C 165.261719 295.1875 165.539062 294.511719 166.03125 294.425781 C 167.289062 294.21875 167.976562 293.171875 169.308594 292.257812 "/>
<path style=" stroke:none;fill-rule:nonzero;fill:rgb(94.509888%,71.759033%,77.648926%);fill-opacity:1;" d="M 208.015625 288.214844 C 208.011719 287.441406 206.449219 288.09375 206.902344 287.097656 C 207.113281 286.636719 207.289062 285.804688 208.195312 285.867188 C 208.75 285.902344 209.351562 285.863281 209.53125 286.476562 C 209.730469 287.167969 209.390625 287.632812 208.636719 287.6875 C 208.285156 287.707031 208.117188 287.921875 207.996094 288.210938 C 208 288.210938 208.015625 288.214844 208.015625 288.214844 "/>
<path style=" stroke:none;fill-rule:nonzero;fill:rgb(94.509888%,71.759033%,77.648926%);fill-opacity:1;" d="M 141.75 296.222656 C 141.539062 297.410156 138.878906 299.246094 137.984375 298.917969 C 137.808594 298.855469 137.621094 298.601562 137.582031 298.402344 C 137.511719 298.070312 137.863281 298.132812 138.050781 298.023438 C 139.222656 297.355469 140.621094 297.199219 141.75 296.222656 "/>
<path style=" stroke:none;fill-rule:nonzero;fill:rgb(94.509888%,71.759033%,77.648926%);fill-opacity:1;" d="M 230.710938 292.082031 C 229.816406 292.738281 228.941406 293.121094 227.960938 293.335938 C 227.464844 293.445312 227.15625 293.398438 227.042969 292.890625 C 226.921875 292.355469 227.171875 292.074219 227.710938 292.148438 C 228.664062 292.273438 229.5625 291.261719 230.710938 292.082031 "/>
<path style=" stroke:none;fill-rule:nonzero;fill:rgb(94.509888%,71.759033%,77.648926%);fill-opacity:1;" d="M 270.820312 255.4375 C 271.566406 255.199219 272.382812 255.546875 273.171875 255.433594 C 273.679688 255.359375 273.824219 255.476562 273.820312 255.925781 C 273.8125 256.308594 273.617188 256.671875 273.234375 256.636719 C 272.28125 256.539062 270.921875 257.226562 270.820312 255.4375 "/>
<path style=" stroke:none;fill-rule:nonzero;fill:rgb(94.509888%,71.759033%,77.648926%);fill-opacity:1;" d="M 321.984375 251.792969 C 321.34375 252.355469 320.753906 252.914062 319.886719 252.910156 C 319.316406 252.90625 319.035156 252.503906 318.765625 252.132812 C 318.683594 252.027344 318.824219 251.695312 318.941406 251.519531 C 319.304688 251 319.699219 251.457031 319.945312 251.617188 C 320.601562 252.058594 321.28125 251.605469 321.984375 251.792969 "/>
<path style=" stroke:none;fill-rule:nonzero;fill:rgb(94.509888%,71.759033%,77.648926%);fill-opacity:1;" d="M 247.203125 290.355469 C 247.777344 289.96875 248.535156 289.855469 249.117188 289.378906 C 249.53125 289.042969 249.480469 289.664062 249.496094 289.957031 C 249.558594 290.777344 249.027344 291.027344 248.363281 291.128906 C 247.839844 291.214844 247.453125 291.007812 247.203125 290.355469 "/>
<path style=" stroke:none;fill-rule:nonzero;fill:rgb(94.509888%,71.759033%,77.648926%);fill-opacity:1;" d="M 234.152344 289.523438 C 233.707031 289.460938 233.011719 290.066406 232.972656 289.140625 C 232.949219 288.648438 233.558594 288.460938 233.933594 288.476562 C 234.539062 288.507812 235.464844 288.707031 235.414062 289.339844 C 235.351562 290.183594 234.554688 289.25 234.152344 289.523438 "/>
<path style=" stroke:none;fill-rule:nonzero;fill:rgb(94.509888%,71.759033%,77.648926%);fill-opacity:1;" d="M 281.738281 277.277344 C 281.683594 276.097656 282.210938 276.285156 282.589844 276.199219 C 283.492188 276.003906 283.449219 276.734375 283.644531 277.246094 C 283.800781 277.652344 283.570312 277.773438 283.238281 277.828125 C 283.195312 276.800781 281.777344 277.78125 281.738281 277.277344 "/>
<path style=" stroke:none;fill-rule:nonzero;fill:rgb(94.509888%,71.759033%,77.648926%);fill-opacity:1;" d="M 175.246094 298.726562 C 175.519531 299.351562 176.808594 299.097656 176.429688 300.082031 C 176.332031 300.332031 175.222656 300.507812 174.863281 300.269531 C 173.886719 299.632812 175.359375 299.363281 175.246094 298.726562 "/>
<path style=" stroke:none;fill-rule:nonzero;fill:rgb(94.509888%,71.759033%,77.648926%);fill-opacity:1;" d="M 11.355469 315.746094 C 11.875 315.183594 12.371094 314.625 13.070312 314.855469 C 13.304688 314.925781 13.453125 315.492188 13.160156 315.921875 C 12.476562 316.917969 12.007812 315.464844 11.355469 315.746094 "/>
<path style=" stroke:none;fill-rule:nonzero;fill:rgb(94.509888%,71.759033%,77.648926%);fill-opacity:1;" d="M 208.90625 283.765625 C 209.664062 282.90625 210.308594 282.480469 211.210938 282.410156 C 211.378906 284.265625 210.011719 283.523438 208.90625 283.765625 "/>
<path style=" stroke:none;fill-rule:nonzero;fill:rgb(94.509888%,71.759033%,77.648926%);fill-opacity:1;" d="M 146.847656 296.527344 C 145.789062 297.4375 145.050781 297.410156 144.476562 296.1875 C 145.28125 296.152344 146.042969 295.921875 146.847656 296.527344 "/>
<path style=" stroke:none;fill-rule:nonzero;fill:rgb(94.509888%,71.759033%,77.648926%);fill-opacity:1;" d="M 285.59375 253.988281 C 285.496094 253.613281 285.367188 253.210938 285.988281 253.160156 C 285.902344 254.035156 287.195312 253.367188 287.117188 254.140625 C 287.050781 254.894531 286.316406 254.597656 285.914062 254.699219 C 285.175781 254.886719 285.367188 254.394531 285.59375 253.988281 "/>
<path style=" stroke:none;fill-rule:nonzero;fill:rgb(94.509888%,71.759033%,77.648926%);fill-opacity:1;" d="M 193.875 287.488281 C 194.824219 286.699219 195.453125 286.214844 196.269531 286.46875 C 196.691406 286.601562 196.28125 287.101562 196.214844 287.15625 C 195.625 287.699219 194.902344 287.425781 193.875 287.488281 "/>
<path style=" stroke:none;fill-rule:nonzero;fill:rgb(94.509888%,71.759033%,77.648926%);fill-opacity:1;" d="M 249.433594 261.09375 C 248.414062 260.960938 247.929688 260.058594 246.828125 260.429688 C 248.160156 259.378906 248.871094 259.601562 249.433594 261.09375 "/>
<path style=" stroke:none;fill-rule:nonzero;fill:rgb(94.509888%,71.759033%,77.648926%);fill-opacity:1;" d="M 259.21875 257.808594 C 259.0625 257.582031 258.765625 257.3125 258.820312 257.203125 C 259.058594 256.664062 259.40625 256.164062 260.128906 256.257812 C 260.429688 256.296875 260.628906 256.496094 260.695312 256.8125 C 260.074219 256.820312 259.800781 257.402344 259.21875 257.808594 "/>
<path style=" stroke:none;fill-rule:nonzero;fill:rgb(94.509888%,71.759033%,77.648926%);fill-opacity:1;" d="M 197.203125 300.425781 C 197.984375 300.394531 198.703125 300.171875 199.613281 299.550781 C 198.96875 301.039062 198.152344 301.015625 197.203125 300.425781 "/>
<path style=" stroke:none;fill-rule:nonzero;fill:rgb(94.509888%,71.759033%,77.648926%);fill-opacity:1;" d="M 161.851562 284.746094 C 161.390625 286.367188 160.179688 285.828125 159.324219 286.570312 C 159.726562 284.945312 161.066406 285.734375 161.851562 284.746094 "/>
<path style=" stroke:none;fill-rule:nonzero;fill:rgb(94.509888%,71.759033%,77.648926%);fill-opacity:1;" d="M 257.925781 284.933594 C 257.492188 284.894531 257.230469 285.171875 256.96875 285.445312 C 256.863281 285.160156 256.152344 285.417969 256.410156 284.824219 C 256.535156 284.542969 256.546875 283.972656 257.03125 284.234375 C 257.328125 284.398438 257.894531 284.351562 257.925781 284.933594 "/>
<path style=" stroke:none;fill-rule:nonzero;fill:rgb(94.509888%,71.759033%,77.648926%);fill-opacity:1;" d="M 179.75 290.164062 C 180.179688 289.195312 180.921875 289.050781 182.171875 288.976562 C 181.1875 289.523438 180.851562 290.347656 179.75 290.164062 "/>
<path style=" stroke:none;fill-rule:nonzero;fill:rgb(94.509888%,71.759033%,77.648926%);fill-opacity:1;" d="M 190.960938 284.953125 C 191.445312 284.0625 192.164062 284.160156 192.726562 284.394531 C 193.195312 284.59375 192.777344 284.957031 192.535156 285.1875 C 192.109375 284.695312 191.621094 284.527344 190.960938 284.953125 "/>
<path style=" stroke:none;fill-rule:nonzero;fill:rgb(94.509888%,71.759033%,77.648926%);fill-opacity:1;" d="M 301.019531 275.269531 C 301.382812 276.179688 300.832031 276.558594 300.476562 277.238281 C 299.785156 276.191406 300.460938 275.828125 301.019531 275.269531 "/>
<path style=" stroke:none;fill-rule:nonzero;fill:rgb(94.509888%,71.759033%,77.648926%);fill-opacity:1;" d="M 280.847656 277.6875 C 281.246094 277.683594 281.5625 277.898438 281.574219 278.25 C 281.582031 278.410156 281.191406 278.664062 280.9375 278.730469 C 280.46875 278.855469 280.496094 278.621094 280.488281 278.179688 C 280.488281 277.796875 280.484375 277.691406 280.847656 277.6875 "/>
<path style=" stroke:none;fill-rule:nonzero;fill:rgb(94.509888%,71.759033%,77.648926%);fill-opacity:1;" d="M 147.625 295.628906 C 147.804688 295.332031 147.980469 294.972656 148.386719 295.046875 C 148.640625 295.089844 148.972656 295.304688 148.867188 295.617188 C 148.75 295.960938 148.421875 296.113281 148.023438 296.074219 C 147.730469 296.042969 147.628906 295.890625 147.625 295.628906 "/>
<path style=" stroke:none;fill-rule:nonzero;fill:rgb(94.509888%,71.759033%,77.648926%);fill-opacity:1;" d="M 230.261719 290.09375 C 230.253906 289.730469 230.402344 289.542969 230.660156 289.589844 C 230.945312 289.636719 231.527344 289.246094 231.410156 290 C 231.382812 290.199219 231.796875 290.621094 231.246094 290.570312 C 230.890625 290.539062 230.566406 290.25 230.261719 290.09375 "/>
<path style=" stroke:none;fill-rule:nonzero;fill:rgb(94.509888%,71.759033%,77.648926%);fill-opacity:1;" d="M 197.875 287.671875 C 197.671875 286.957031 197.507812 286.390625 197.285156 285.625 C 198.035156 286.328125 198.035156 286.328125 197.875 287.671875 "/>
<path style=" stroke:none;fill-rule:nonzero;fill:rgb(94.509888%,71.759033%,77.648926%);fill-opacity:1;" d="M 220.167969 285.011719 C 220.488281 284.992188 220.746094 285.054688 220.757812 285.457031 C 220.769531 285.769531 220.738281 286.054688 220.332031 286.066406 C 220.027344 286.070312 219.730469 286.082031 219.945312 285.605469 C 220.027344 285.414062 219.625 285.039062 220.167969 285.011719 "/>
<path style=" stroke:none;fill-rule:nonzero;fill:rgb(94.509888%,71.759033%,77.648926%);fill-opacity:1;" d="M 36.835938 315.683594 C 36.316406 316.453125 35.695312 316.679688 35.6875 317.347656 C 35.15625 316.363281 35.757812 316.054688 36.835938 315.683594 "/>
<path style=" stroke:none;fill-rule:nonzero;fill:rgb(94.509888%,71.759033%,77.648926%);fill-opacity:1;" d="M 201.164062 258.6875 C 201.21875 259.117188 201.5625 259.636719 200.902344 259.871094 C 200.636719 259.96875 200.304688 259.949219 200.226562 259.535156 C 200.050781 258.636719 201.085938 259.261719 201.21875 258.742188 C 201.214844 258.742188 201.164062 258.6875 201.164062 258.6875 "/>
<path style=" stroke:none;fill-rule:nonzero;fill:rgb(94.509888%,71.759033%,77.648926%);fill-opacity:1;" d="M 229.164062 287.84375 C 228.617188 288.285156 227.585938 288.378906 227.484375 288.230469 C 227.035156 287.546875 227.507812 287.507812 228.027344 287.777344 C 228.390625 287.96875 228.71875 287.339844 229.164062 287.84375 "/>
<path style=" stroke:none;fill-rule:nonzero;fill:rgb(94.509888%,71.759033%,77.648926%);fill-opacity:1;" d="M 325.839844 268.699219 C 326.222656 269.542969 325.871094 269.914062 325 270.027344 C 325.039062 269.410156 325.902344 269.308594 325.839844 268.699219 "/>
<path style=" stroke:none;fill-rule:nonzero;fill:rgb(94.509888%,71.759033%,77.648926%);fill-opacity:1;" d="M 140.757812 289.535156 C 140.628906 289.050781 140.511719 288.632812 140.859375 288.292969 C 140.910156 288.242188 141.261719 288.359375 141.289062 288.460938 C 141.425781 288.894531 141.363281 289.296875 140.757812 289.535156 "/>
<path style=" stroke:none;fill-rule:nonzero;fill:rgb(94.509888%,71.759033%,77.648926%);fill-opacity:1;" d="M 149.710938 298.5625 C 149.480469 298.4375 149.15625 298.308594 149.226562 297.996094 C 149.265625 297.820312 149.53125 297.597656 149.722656 297.566406 C 150.121094 297.503906 150.136719 297.839844 150.136719 298.144531 C 150.136719 298.425781 149.996094 298.558594 149.710938 298.5625 "/>
<path style=" stroke:none;fill-rule:nonzero;fill:rgb(94.509888%,71.759033%,77.648926%);fill-opacity:1;" d="M 241.273438 258.527344 C 240.851562 258.332031 240.445312 258.15625 240.460938 257.644531 C 240.464844 257.53125 240.757812 257.3125 240.835938 257.34375 C 241.335938 257.574219 241.453125 257.980469 241.273438 258.527344 "/>
<path style=" stroke:none;fill-rule:nonzero;fill:rgb(94.509888%,71.759033%,77.648926%);fill-opacity:1;" d="M 193.113281 288.238281 C 192.695312 288.21875 192.640625 287.957031 192.644531 287.628906 C 192.65625 287.339844 192.847656 287.113281 193.058594 287.234375 C 193.277344 287.359375 193.425781 287.679688 193.511719 287.941406 C 193.660156 288.378906 193.222656 288.117188 193.113281 288.238281 "/>
<path style=" stroke:none;fill-rule:nonzero;fill:rgb(94.509888%,71.759033%,77.648926%);fill-opacity:1;" d="M 245.949219 285.039062 C 246.128906 285.078125 246.394531 285.078125 246.355469 285.414062 C 246.316406 285.710938 246.066406 285.730469 245.839844 285.71875 C 245.613281 285.710938 245.355469 285.679688 245.394531 285.351562 C 245.429688 285.054688 245.675781 285.039062 245.949219 285.039062 "/>
<path style=" stroke:none;fill-rule:nonzero;fill:rgb(94.509888%,71.759033%,77.648926%);fill-opacity:1;" d="M 198.765625 262.78125 C 198.699219 262.832031 198.503906 263.078125 198.3125 263.074219 C 198.144531 263.070312 197.984375 262.78125 197.820312 262.621094 C 197.996094 262.460938 198.152344 262.234375 198.355469 262.167969 C 198.625 262.082031 198.777344 262.285156 198.765625 262.78125 "/>
<path style=" stroke:none;fill-rule:nonzero;fill:rgb(94.509888%,71.759033%,77.648926%);fill-opacity:1;" d="M 309.429688 253.488281 C 308.996094 253.835938 308.648438 254.121094 308.105469 254.558594 C 308.25 253.597656 308.605469 253.328125 309.429688 253.488281 "/>
<path style=" stroke:none;fill-rule:nonzero;fill:rgb(94.509888%,71.759033%,77.648926%);fill-opacity:1;" d="M 263.71875 281.703125 C 263.289062 281.785156 263.382812 281.445312 263.269531 281.296875 C 263.136719 281.117188 262.984375 280.886719 263.367188 280.839844 C 263.632812 280.800781 264.011719 280.722656 264 281.164062 C 263.996094 281.355469 263.808594 281.546875 263.71875 281.703125 "/>
<path style=" stroke:none;fill-rule:nonzero;fill:rgb(94.509888%,71.759033%,77.648926%);fill-opacity:1;" d="M 275.042969 254.113281 C 274.625 254.242188 274.21875 254.367188 273.886719 254.027344 C 273.824219 253.972656 273.941406 253.605469 274.011719 253.589844 C 274.46875 253.5 274.742188 253.820312 275.042969 254.113281 "/>
<path style=" stroke:none;fill-rule:nonzero;fill:rgb(94.509888%,71.759033%,77.648926%);fill-opacity:1;" d="M 265.386719 282.429688 C 265.761719 283.265625 265.148438 283.351562 264.515625 283.511719 C 264.457031 282.792969 265.332031 282.96875 265.429688 282.480469 C 265.425781 282.476562 265.386719 282.429688 265.386719 282.429688 "/>
<path style=" stroke:none;fill-rule:nonzero;fill:rgb(94.509888%,71.759033%,77.648926%);fill-opacity:1;" d="M 253.179688 264.441406 C 253.207031 264.128906 252.535156 263.980469 252.933594 263.636719 C 253.085938 263.5 253.472656 263.625 253.753906 263.632812 C 253.554688 263.902344 253.355469 264.175781 253.15625 264.445312 C 253.15625 264.453125 253.179688 264.441406 253.179688 264.441406 "/>
<path style=" stroke:none;fill-rule:nonzero;fill:rgb(94.509888%,71.759033%,77.648926%);fill-opacity:1;" d="M 319.117188 272.566406 C 318.433594 273.394531 318.03125 273.097656 317.625 272.976562 C 318.007812 272.871094 318.390625 272.765625 319.117188 272.566406 "/>
<path style=" stroke:none;fill-rule:nonzero;fill:rgb(94.509888%,71.759033%,77.648926%);fill-opacity:1;" d="M 327.121094 250.957031 C 327.066406 250.871094 326.917969 250.753906 326.910156 250.628906 C 326.902344 250.300781 327.175781 250.164062 327.425781 250.03125 C 327.472656 250.191406 327.554688 250.34375 327.5625 250.511719 C 327.566406 250.734375 327.515625 250.96875 327.121094 250.957031 "/>
<path style=" stroke:none;fill-rule:nonzero;fill:rgb(94.509888%,71.759033%,77.648926%);fill-opacity:1;" d="M 206.015625 284.4375 C 205.960938 284.398438 205.746094 284.265625 205.757812 284.246094 C 205.871094 283.980469 206.039062 283.714844 206.378906 283.792969 C 206.480469 283.820312 206.621094 284.039062 206.605469 284.152344 C 206.582031 284.441406 206.328125 284.449219 206.015625 284.4375 "/>
<g clip-path="url(#clip3)" clip-rule="nonzero">
<path style=" stroke:none;fill-rule:nonzero;fill:rgb(94.509888%,71.759033%,77.648926%);fill-opacity:1;" d="M 32.304688 317.953125 C 32.339844 317.617188 32.378906 317.285156 32.414062 316.949219 C 32.734375 317.078125 33.132812 317.164062 32.753906 317.644531 C 32.65625 317.769531 32.597656 317.925781 32.519531 318.074219 C 32.449219 318.03125 32.375 317.992188 32.304688 317.953125 "/>
</g>
<path style=" stroke:none;fill-rule:nonzero;fill:rgb(94.509888%,71.759033%,77.648926%);fill-opacity:1;" d="M 153.292969 287.234375 C 153.425781 287.011719 153.523438 286.699219 153.863281 286.757812 C 154 286.785156 154.097656 286.992188 154.210938 287.117188 C 153.984375 287.257812 153.773438 287.4375 153.53125 287.53125 C 153.289062 287.628906 153.308594 287.398438 153.292969 287.234375 "/>
<path style=" stroke:none;fill-rule:nonzero;fill:rgb(94.509888%,71.759033%,77.648926%);fill-opacity:1;" d="M 124.746094 231.847656 C 126.132812 230.734375 128.296875 231.382812 130.128906 230.457031 C 130.914062 230.058594 130.832031 229.429688 130.8125 228.777344 C 130.800781 228.335938 130.84375 227.921875 131.246094 227.667969 C 131.867188 227.292969 131.953125 227.980469 132.125 228.226562 C 132.992188 229.453125 134.839844 228.800781 135.679688 230.199219 C 135.910156 230.585938 136.621094 229.789062 137.15625 229.707031 C 138.375 229.519531 139.242188 230.375 140.214844 230.871094 C 140.578125 231.058594 140.960938 231.53125 141.179688 230.9375 C 141.917969 228.882812 143.8125 228.929688 145.417969 228.417969 C 147.074219 227.894531 148.769531 227.75 150.5 227.65625 C 151.402344 227.613281 151.632812 228.175781 151.664062 228.628906 C 151.707031 229.171875 151.101562 229.316406 150.582031 229.597656 C 148.824219 230.53125 146.589844 229.179688 145.070312 230.890625 C 144.960938 231.019531 144.5 230.898438 144.230469 230.8125 C 143.050781 230.425781 142.058594 230.667969 141.257812 231.636719 C 140.871094 232.101562 140.441406 232.039062 139.851562 231.996094 C 139.050781 231.949219 137.980469 231.488281 137.414062 232.628906 C 137.304688 232.851562 137.058594 232.90625 136.785156 232.804688 C 134.46875 231.953125 132.269531 233.109375 130.105469 233.496094 C 128.894531 233.710938 127.507812 233.433594 126.234375 234.328125 C 125.082031 235.144531 123.488281 233.714844 122.027344 234.066406 C 121.976562 233.722656 121.773438 233.304688 121.898438 233.042969 C 122.289062 232.269531 123.0625 231.921875 123.84375 231.636719 C 123.980469 231.589844 124.179688 231.707031 124.746094 231.847656 "/>
<path style=" stroke:none;fill-rule:nonzero;fill:rgb(94.509888%,71.759033%,77.648926%);fill-opacity:1;" d="M 152.90625 226.492188 C 153.292969 225.625 153.320312 224.546875 154.324219 224.460938 C 154.605469 224.4375 155.335938 225.464844 155.230469 225.835938 C 154.855469 227.222656 153.570312 225.480469 152.90625 226.492188 "/>
<path style=" stroke:none;fill-rule:nonzero;fill:rgb(94.509888%,71.759033%,77.648926%);fill-opacity:1;" d="M 105.328125 234.195312 C 106.160156 233.734375 104.429688 232.476562 105.863281 232.417969 C 106.203125 232.398438 107.175781 232.265625 107.191406 232.800781 C 107.230469 233.820312 105.910156 233.59375 105.328125 234.195312 "/>
<path style=" stroke:none;fill-rule:nonzero;fill:rgb(94.509888%,71.759033%,77.648926%);fill-opacity:1;" d="M 153.480469 229.019531 C 153.414062 228.921875 153.265625 228.800781 153.261719 228.675781 C 153.25 228.347656 153.523438 228.210938 153.773438 228.078125 C 153.824219 228.238281 153.898438 228.394531 153.910156 228.554688 C 153.917969 228.785156 153.851562 229 153.480469 229.019531 "/>
<path style=" stroke:none;fill-rule:nonzero;fill:rgb(94.509888%,71.759033%,77.648926%);fill-opacity:1;" d="M 153.097656 260.925781 C 153.507812 261.058594 154.238281 261.027344 154.296875 261.75 C 154.398438 262.898438 153.332031 262.835938 152.652344 263.023438 C 151.488281 263.335938 151.890625 262.117188 151.539062 261.640625 C 151.289062 261.3125 151.890625 260.972656 153.097656 260.925781 "/>
<path style=" stroke:none;fill-rule:nonzero;fill:rgb(94.509888%,71.759033%,77.648926%);fill-opacity:1;" d="M 175.089844 253.859375 C 174.84375 254.644531 174.382812 255.082031 173.617188 255.007812 C 173.546875 255 173.414062 254.734375 173.445312 254.621094 C 173.683594 253.730469 174.589844 254.246094 175.089844 253.859375 "/>
<path style=" stroke:none;fill-rule:nonzero;fill:rgb(94.509888%,71.759033%,77.648926%);fill-opacity:1;" d="M 155.652344 260.878906 C 155.535156 261.347656 155.4375 261.734375 155.320312 262.199219 C 154.855469 261.589844 154.574219 261.105469 155.652344 260.878906 "/>
<path style=" stroke:none;fill-rule:nonzero;fill:rgb(94.509888%,71.759033%,77.648926%);fill-opacity:1;" d="M 246.816406 275.441406 C 246.757812 275.953125 247.765625 275.714844 247.472656 276.347656 C 247.347656 276.621094 247.066406 276.761719 246.746094 276.554688 C 246.09375 276.125 246.65625 275.792969 246.832031 275.429688 L 246.816406 275.441406 "/>
<path style=" stroke:none;fill-rule:nonzero;fill:rgb(94.509888%,71.759033%,77.648926%);fill-opacity:1;" d="M 250.84375 274.472656 C 251.042969 274.511719 251.308594 274.519531 251.269531 274.851562 C 251.230469 275.148438 250.984375 275.171875 250.757812 275.152344 C 250.53125 275.148438 250.273438 275.109375 250.3125 274.789062 C 250.347656 274.496094 250.59375 274.480469 250.84375 274.472656 "/>
<path style=" stroke:none;fill-rule:nonzero;fill:rgb(94.509888%,71.759033%,77.648926%);fill-opacity:1;" d="M 133.011719 289.734375 C 132.347656 289.691406 131.726562 289.960938 131.054688 289.929688 C 130.585938 289.902344 130.148438 290.054688 129.71875 290.242188 C 130.980469 290.011719 132.246094 289.808594 133.527344 289.703125 C 134 289.664062 134.476562 289.65625 134.957031 289.648438 C 134.570312 289.398438 134.46875 288.90625 134.316406 288.457031 C 134.0625 289.070312 133.867188 289.78125 133.011719 289.734375 "/>
<path style=" stroke:none;fill-rule:nonzero;fill:rgb(94.509888%,71.759033%,77.648926%);fill-opacity:1;" d="M 212.328125 262.960938 C 212.109375 263.226562 211.875 263.464844 211.789062 263.722656 C 211.957031 263.46875 212.15625 263.21875 212.328125 262.960938 "/>
<path style=" stroke:none;fill-rule:nonzero;fill:rgb(94.509888%,71.759033%,77.648926%);fill-opacity:1;" d="M 112.644531 170.765625 C 112.136719 170.871094 111.773438 171.179688 111.421875 171.484375 C 112.496094 171.105469 113.570312 170.742188 114.636719 170.3125 C 113.976562 170.46875 113.3125 170.636719 112.644531 170.765625 "/>
<path style=" stroke:none;fill-rule:nonzero;fill:rgb(94.509888%,71.759033%,77.648926%);fill-opacity:1;" d="M 106.652344 173.070312 C 107.003906 172.964844 107.359375 172.863281 107.710938 172.753906 C 107.359375 172.855469 107.003906 172.960938 106.652344 173.070312 "/>
<path style=" stroke:none;fill-rule:nonzero;fill:rgb(94.509888%,71.759033%,77.648926%);fill-opacity:1;" d="M 121.375 168.875 C 121.964844 168.648438 122.515625 168.351562 123.074219 168.074219 C 122.511719 168.339844 121.960938 168.636719 121.375 168.875 "/>
<path style=" stroke:none;fill-rule:nonzero;fill:rgb(94.509888%,71.759033%,77.648926%);fill-opacity:1;" d="M 184.570312 264.960938 C 185.355469 264.503906 186.144531 264.304688 186.984375 264.398438 C 186.769531 264.363281 186.570312 264.386719 186.347656 264.324219 C 185.808594 264.171875 185.101562 264.507812 184.570312 264.960938 "/>
<path style=" stroke:none;fill-rule:nonzero;fill:rgb(94.509888%,71.759033%,77.648926%);fill-opacity:1;" d="M 123.234375 291.355469 C 124.417969 291.214844 125.585938 291.003906 126.753906 290.785156 C 126.734375 290.777344 126.710938 290.785156 126.691406 290.785156 C 125.417969 290.546875 124.394531 291.214844 123.234375 291.355469 "/>
<path style=" stroke:none;fill-rule:nonzero;fill:rgb(94.509888%,71.759033%,77.648926%);fill-opacity:1;" d="M 120.363281 169.144531 C 120.34375 169.152344 120.324219 169.15625 120.304688 169.160156 C 120.324219 169.160156 120.34375 169.152344 120.363281 169.144531 "/>
<path style=" stroke:none;fill-rule:nonzero;fill:rgb(94.509888%,71.759033%,77.648926%);fill-opacity:1;" d="M 212.328125 262.960938 C 212.566406 262.667969 212.785156 262.339844 212.777344 261.898438 C 212.773438 261.773438 212.628906 261.5625 212.4375 261.339844 C 212.789062 261.992188 212.625 262.496094 212.328125 262.960938 "/>
<path style=" stroke:none;fill-rule:nonzero;fill:rgb(94.509888%,71.759033%,77.648926%);fill-opacity:1;" d="M 126.546875 299.160156 C 126.71875 298.988281 126.894531 298.820312 127.097656 298.691406 C 126.898438 298.835938 126.699219 298.984375 126.546875 299.160156 "/>
<path style=" stroke:none;fill-rule:nonzero;fill:rgb(94.509888%,71.759033%,77.648926%);fill-opacity:1;" d="M 291.570312 274.878906 C 291.015625 274.675781 290.066406 274.980469 289.125 274.730469 C 288.761719 274.636719 288.386719 274.746094 288.074219 274.980469 C 289.265625 274.859375 290.445312 274.8125 291.570312 274.878906 "/>
<path style=" stroke:none;fill-rule:nonzero;fill:rgb(94.509888%,71.759033%,77.648926%);fill-opacity:1;" d="M 129.167969 290.476562 C 129.34375 290.390625 129.53125 290.320312 129.71875 290.242188 C 128.730469 290.414062 127.742188 290.601562 126.753906 290.785156 C 127.507812 290.910156 128.390625 290.839844 129.167969 290.476562 "/>
<path style=" stroke:none;fill-rule:nonzero;fill:rgb(94.509888%,71.759033%,77.648926%);fill-opacity:1;" d="M 134.957031 289.648438 C 135.085938 289.738281 135.25 289.796875 135.464844 289.8125 C 135.773438 289.84375 136.058594 289.746094 136.347656 289.660156 C 136.351562 289.660156 136.355469 289.65625 136.367188 289.648438 C 135.894531 289.648438 135.425781 289.648438 134.957031 289.648438 "/>
<path style=" stroke:none;fill-rule:nonzero;fill:rgb(94.509888%,71.759033%,77.648926%);fill-opacity:1;" d="M 120.304688 169.160156 C 118.53125 169.359375 116.628906 169.515625 115.011719 170.171875 C 114.890625 170.226562 114.757812 170.257812 114.636719 170.3125 C 116.46875 169.878906 118.300781 169.425781 120.15625 169.199219 C 120.207031 169.199219 120.25 169.171875 120.304688 169.160156 "/>
<path style=" stroke:none;fill-rule:nonzero;fill:rgb(94.509888%,71.759033%,77.648926%);fill-opacity:1;" d="M 111.421875 171.484375 C 110.191406 171.925781 108.960938 172.359375 107.710938 172.753906 C 108.527344 172.523438 109.355469 172.316406 110.199219 172.195312 C 110.695312 172.121094 111.054688 171.804688 111.421875 171.484375 "/>
<g clip-path="url(#clip4)" clip-rule="nonzero">
<path style=" stroke:none;fill-rule:nonzero;fill:rgb(94.509888%,71.759033%,77.648926%);fill-opacity:1;" d="M 17.773438 318.324219 C 18.859375 318.035156 19.964844 318.097656 21.003906 318.136719 C 23.183594 318.21875 24.554688 316.832031 25.875 315.597656 C 27.265625 314.289062 27.351562 314.105469 28.429688 315.617188 C 29.460938 317.058594 30.402344 316.960938 32.042969 316.464844 C 33.785156 315.945312 35.761719 314.445312 37.5625 316.597656 C 38.351562 317.535156 39.355469 317.507812 40.523438 317.101562 C 42.019531 316.578125 43.5625 316.800781 45.121094 317.214844 C 48.214844 318.027344 51.054688 316.882812 53.851562 315.753906 C 54.210938 315.605469 54.4375 315.164062 54.652344 314.792969 C 55.941406 312.621094 55.957031 312.601562 58.472656 313.335938 C 62.203125 314.425781 65.699219 313.777344 68.96875 311.832031 C 70.714844 310.796875 72.363281 310.4375 74.132812 311.683594 C 74.726562 312.105469 75.324219 311.976562 76.007812 311.746094 C 78.136719 311.035156 79.945312 309.367188 82.398438 309.578125 C 82.730469 309.605469 83.195312 309.339844 83.304688 309.054688 C 83.851562 307.566406 85.355469 306.960938 86.179688 305.847656 C 87.167969 304.515625 88.253906 304.292969 89.679688 304.136719 C 91.796875 303.910156 93.894531 303.777344 95.917969 302.703125 C 98.015625 301.589844 100.425781 301.097656 102.902344 301.796875 C 104.367188 302.207031 105.839844 301.601562 107.269531 301.351562 C 108.183594 301.199219 109.085938 300.4375 108.996094 298.925781 C 109.460938 300.46875 110.3125 301.042969 111.648438 300.957031 C 112.386719 300.910156 113.191406 301.035156 113.691406 301.542969 C 114.820312 302.6875 116.023438 302.351562 117.175781 301.820312 C 118.554688 301.175781 120.019531 301.015625 121.398438 301.332031 C 123.261719 301.757812 124.554688 300.945312 125.800781 299.871094 C 126.058594 299.644531 126.296875 299.394531 126.546875 299.160156 C 126.699219 298.984375 126.898438 298.835938 127.097656 298.691406 C 126.894531 298.820312 126.71875 298.988281 126.546875 299.160156 C 126.320312 299.40625 126.191406 299.699219 126.324219 300.128906 C 126.574219 300.910156 127.242188 301 127.914062 301.078125 C 128.464844 301.144531 128.988281 300.933594 129.519531 300.914062 C 131.523438 300.824219 132.761719 298.707031 134.914062 298.953125 C 135.339844 299.003906 135.535156 298.316406 135.691406 297.839844 C 136.601562 295.089844 138.722656 294.09375 141.324219 295.246094 C 141.957031 295.53125 142.570312 295.851562 143.199219 295.507812 C 144.398438 294.839844 145.859375 294.617188 146.902344 293.898438 C 148.402344 292.867188 149.71875 292.210938 151.539062 292.757812 C 152.273438 292.972656 152.960938 292.511719 153.25 291.742188 C 153.617188 290.785156 154.015625 289.78125 153.34375 288.804688 C 152.929688 288.207031 152.308594 288.078125 151.582031 288.207031 C 147.945312 288.867188 144.230469 288.792969 140.585938 289.449219 C 139.195312 289.699219 137.78125 289.671875 136.367188 289.648438 C 136.355469 289.65625 136.351562 289.660156 136.347656 289.660156 C 136.058594 289.746094 135.773438 289.84375 135.464844 289.8125 C 135.25 289.796875 135.085938 289.738281 134.957031 289.648438 C 134.476562 289.65625 134 289.664062 133.527344 289.703125 C 132.246094 289.808594 130.980469 290.011719 129.71875 290.242188 C 129.53125 290.320312 129.34375 290.390625 129.167969 290.476562 C 128.390625 290.839844 127.507812 290.910156 126.753906 290.785156 C 125.585938 291.003906 124.417969 291.214844 123.234375 291.355469 C 124.394531 291.214844 125.417969 290.546875 126.691406 290.785156 C 126.710938 290.785156 126.734375 290.777344 126.753906 290.785156 C 127.742188 290.601562 128.730469 290.414062 129.71875 290.242188 C 130.148438 290.054688 130.585938 289.902344 131.054688 289.929688 C 131.726562 289.960938 132.347656 289.691406 133.011719 289.734375 C 133.867188 289.78125 134.0625 289.070312 134.316406 288.457031 C 134.46875 288.90625 134.570312 289.398438 134.957031 289.648438 C 135.425781 289.648438 135.894531 289.648438 136.367188 289.648438 C 137.394531 289.339844 138.378906 288.953125 139.238281 288.257812 C 139.785156 287.824219 140.65625 287.1875 141.171875 287.785156 C 142.484375 289.3125 144.011719 288.765625 145.601562 288.726562 C 147.8125 288.671875 149.917969 288.792969 150.894531 286.140625 C 151.402344 284.765625 153.007812 284.660156 154.109375 283.972656 C 154.945312 283.457031 155.371094 284.398438 156.003906 284.597656 C 157.148438 284.953125 158.363281 285.179688 159.535156 284.867188 C 160.46875 284.613281 161.167969 284.675781 161.703125 285.535156 C 162.117188 286.199219 162.867188 286.503906 163.398438 286.046875 C 165.140625 284.546875 167.589844 285.292969 169.40625 283.941406 C 170.171875 283.375 171.28125 283.226562 171.996094 282.441406 C 172.296875 282.109375 172.628906 281.863281 173.097656 282.09375 C 173.382812 282.226562 173.648438 282.496094 173.621094 282.769531 C 173.578125 283.242188 173.054688 283.070312 172.761719 283.234375 C 172.226562 283.535156 171.625 283.84375 171.484375 284.441406 C 171.277344 285.363281 170.027344 286.273438 171.066406 287.234375 C 172.023438 288.109375 173.042969 287.488281 173.96875 286.875 C 175.058594 286.167969 176.285156 286.296875 177.472656 286.488281 C 178.324219 286.621094 179.113281 286.585938 179.964844 286.433594 C 182.121094 286.03125 184.089844 285.136719 186.070312 284.257812 C 186.472656 284.078125 186.882812 283.992188 187.292969 284.152344 C 189.144531 284.886719 191.027344 284.25 192.605469 283.636719 C 195.046875 282.6875 197.503906 282.613281 199.988281 282.539062 C 201.941406 282.480469 204.140625 283.054688 205.816406 282.429688 C 208.210938 281.542969 210.511719 281.933594 212.851562 281.753906 C 213.273438 281.714844 213.734375 281.742188 213.917969 282.226562 C 214.09375 282.695312 213.828125 283.082031 213.503906 283.339844 C 212.648438 284.007812 211.902344 284.789062 211.105469 285.523438 C 210.191406 286.363281 209.292969 287.289062 207.917969 287.355469 C 207.753906 287.402344 207.597656 287.46875 207.449219 287.5625 C 206.824219 287.914062 206.003906 287.988281 205.582031 288.613281 C 204.179688 290.679688 202.003906 290.394531 199.988281 290.453125 C 198.917969 290.492188 197.867188 290.316406 196.910156 289.460938 C 195.832031 288.5 193.6875 289.304688 193.132812 290.660156 C 192.5625 292.050781 193.269531 293.269531 194.78125 293.339844 C 199.785156 293.578125 204.796875 294.285156 209.8125 293.457031 C 210.855469 293.285156 211.847656 293.101562 212.785156 292.367188 C 214.335938 291.148438 216.1875 290.359375 217.074219 288.351562 C 217.347656 287.738281 218.0625 287.300781 217.800781 286.496094 C 217.492188 285.566406 216.71875 285.28125 215.800781 285.203125 C 217.816406 284.613281 219.535156 283.167969 221.820312 283.472656 C 222.421875 283.554688 222.460938 283.382812 222.203125 284.007812 C 221.917969 284.699219 222.339844 285.292969 222.941406 285.6875 C 223.476562 286.042969 224.121094 286.261719 224.621094 285.816406 C 225.457031 285.078125 226.476562 285.066406 227.445312 284.785156 C 229.738281 284.136719 229.722656 284.089844 230.984375 285.902344 C 231.910156 287.226562 232.425781 287.328125 233.804688 286.511719 C 235.265625 285.640625 236.867188 285.222656 238.351562 286.222656 C 239.695312 287.132812 241.078125 287 242.507812 286.941406 C 243.375 286.902344 244.023438 286.472656 244.152344 285.5625 C 244.300781 284.484375 243.472656 284.355469 242.78125 284.234375 C 242.988281 284.339844 243.300781 284.355469 243.59375 284.316406 C 245.1875 284.101562 246.652344 284.03125 248.265625 284.8125 C 249.394531 285.363281 251.0625 285.378906 252.171875 283.933594 C 253 282.867188 254.246094 282.667969 255.59375 282.695312 C 257.742188 282.738281 259.863281 282.558594 261.535156 280.855469 C 262.023438 280.359375 262.703125 280.0625 263.230469 279.554688 C 264.226562 278.597656 265.34375 278.621094 266.507812 279.5 C 264.085938 280.695312 263.875 281.28125 265.203125 282.902344 C 265.347656 283 265.5 283.066406 265.667969 283.109375 C 267.042969 283.671875 268.460938 284.589844 269.546875 282.425781 C 269.574219 283.386719 269.394531 284.335938 270.441406 284.628906 C 271.351562 284.882812 272.136719 284.632812 272.949219 284.042969 C 274.039062 283.253906 274.640625 282.109375 275.140625 281.019531 C 276.421875 278.25 278.414062 276.675781 281.441406 276.402344 C 281.796875 276.371094 282.15625 276.375 282.503906 276.246094 C 284.351562 275.542969 286.234375 275.160156 288.074219 274.980469 C 288.386719 274.746094 288.761719 274.636719 289.125 274.730469 C 290.066406 274.980469 291.015625 274.675781 291.570312 274.878906 C 290.445312 274.8125 289.265625 274.859375 288.074219 274.980469 C 287.894531 275.113281 287.738281 275.285156 287.636719 275.503906 C 287.332031 276.160156 287.761719 276.652344 288.207031 277.082031 C 289.578125 278.433594 291.671875 278.617188 293.265625 277.503906 C 293.917969 277.050781 294.605469 276.609375 295.40625 276.652344 C 296.316406 276.714844 297.015625 276.363281 297.761719 275.953125 C 299.78125 274.835938 301.839844 274.011719 304.261719 274.476562 C 305.082031 274.636719 306.0625 274.617188 306.898438 274.136719 C 309.253906 272.78125 311.652344 272.378906 314.28125 273.464844 C 315.652344 274.035156 316.644531 273.019531 316.222656 271.628906 C 316.078125 271.164062 316.167969 270.871094 316.3125 270.460938 C 316.820312 269.039062 316.1875 267.992188 314.675781 267.757812 C 313.789062 267.621094 312.882812 267.683594 311.984375 267.824219 C 308.121094 268.417969 304.355469 268.125 300.671875 266.691406 C 299.195312 266.113281 297.542969 265.246094 295.988281 266.125 C 293.464844 267.550781 290.9375 267.136719 288.402344 266.492188 C 284.871094 265.589844 281.425781 264.34375 277.714844 264.304688 C 276.179688 264.285156 274.734375 263.707031 273.097656 264.164062 C 269.089844 265.28125 265.019531 266.078125 260.992188 264.132812 C 260.492188 263.890625 259.960938 263.847656 259.425781 263.765625 C 257.523438 263.46875 255.632812 263.464844 253.734375 263.757812 C 253.566406 263.730469 253.402344 263.699219 253.238281 263.675781 C 252.445312 263.367188 251.679688 263.292969 250.796875 263.351562 C 245.71875 263.6875 240.632812 264.128906 235.597656 262.792969 C 234.769531 262.578125 233.695312 262.390625 232.953125 262.898438 C 231.53125 263.867188 229.964844 263.835938 228.4375 263.746094 C 226.71875 263.652344 224.738281 263.996094 223.363281 262.984375 C 222.027344 262.003906 220.617188 261.386719 219.148438 260.757812 C 218.761719 260.59375 218.277344 260.519531 218.367188 259.953125 C 218.445312 259.476562 218.890625 259.296875 219.304688 259.21875 C 220.433594 259.023438 221.582031 258.878906 222.691406 259.253906 C 223.898438 259.664062 224.867188 259.550781 225.246094 258.160156 C 225.515625 257.160156 224.144531 255.277344 223.101562 255.515625 C 220.304688 256.164062 217.15625 254.648438 214.644531 256.925781 C 214.386719 257.160156 213.964844 257.136719 213.613281 257.21875 C 212.109375 257.578125 210.941406 259.628906 211.9375 260.660156 C 212.171875 260.90625 212.316406 261.128906 212.4375 261.339844 C 212.628906 261.5625 212.773438 261.773438 212.777344 261.898438 C 212.785156 262.339844 212.566406 262.667969 212.328125 262.960938 C 212.15625 263.21875 211.957031 263.46875 211.789062 263.722656 C 211.875 263.464844 212.109375 263.226562 212.328125 262.960938 C 212.625 262.496094 212.789062 261.992188 212.4375 261.339844 C 211.605469 260.367188 209.414062 258.769531 208.828125 258.824219 C 207.558594 258.9375 206.351562 259.292969 205.230469 259.910156 C 204.550781 260.289062 204.207031 260.933594 204.222656 261.707031 C 204.242188 262.453125 204.761719 262.835938 205.398438 263.160156 C 205.796875 263.363281 206.371094 263.277344 206.601562 263.8125 C 203.589844 264.738281 202.535156 264.734375 199.835938 263.789062 C 199.421875 263.652344 198.945312 263.492188 198.609375 263.734375 C 196.730469 265.074219 194.527344 264.210938 192.5 264.652344 C 191.035156 264.96875 189.382812 265.113281 187.863281 264.589844 C 187.574219 264.496094 187.292969 264.429688 187.011719 264.398438 C 187.003906 264.398438 186.992188 264.398438 186.984375 264.398438 C 186.144531 264.304688 185.355469 264.503906 184.570312 264.960938 C 185.101562 264.507812 185.808594 264.171875 186.347656 264.324219 C 186.570312 264.386719 186.769531 264.363281 186.984375 264.398438 C 186.992188 264.398438 187.003906 264.398438 187.011719 264.398438 C 188.957031 264.667969 190.582031 263.757812 192.175781 262.835938 C 193.484375 262.085938 194.78125 261.738281 196.28125 261.878906 C 197.992188 262.027344 199.769531 260.808594 200.304688 259.253906 C 200.46875 258.796875 200.746094 259.011719 201.007812 259.125 C 201.167969 259.191406 201.335938 259.238281 201.511719 259.242188 C 202.332031 259.195312 202.761719 258.703125 203.144531 258.011719 C 203.796875 256.839844 204.9375 256.253906 206.175781 255.917969 C 208.683594 255.230469 211.382812 255.476562 213.808594 254.347656 C 213.96875 254.273438 214.1875 254.261719 214.339844 254.332031 C 215.78125 254.992188 217.179688 254.304688 218.578125 254.132812 C 219.671875 254 220.664062 254.027344 221.75 254.339844 C 224.570312 255.15625 227.546875 254.878906 230.449219 255.261719 C 232.285156 255.503906 233.910156 255.792969 235.457031 256.738281 C 235.8125 256.953125 236.140625 257.222656 236.519531 257.414062 C 237.464844 257.886719 238.3125 257.527344 239.042969 256.976562 C 239.65625 256.519531 239.851562 255.769531 239.632812 255.019531 C 239.316406 253.929688 238.386719 253.964844 237.679688 253.988281 C 238.628906 253.726562 239.394531 254.09375 240.101562 255.066406 C 240.765625 255.976562 241.625 256.738281 242.332031 257.648438 C 243.375 258.996094 246.917969 258.65625 247.496094 257.121094 C 248.125 255.464844 249.179688 254.597656 250.785156 253.972656 C 251.964844 253.507812 252.691406 253.535156 253.351562 254.621094 C 253.941406 255.597656 254.691406 256.34375 255.984375 256.058594 C 256.691406 255.902344 256.980469 255.210938 257.535156 254.859375 C 260.019531 253.296875 260.0625 252.4375 257.742188 250.753906 C 257.492188 250.570312 257.214844 250.429688 257.265625 250.070312 C 257.3125 249.734375 257.5625 249.582031 257.882812 249.511719 C 258.855469 249.289062 261.386719 250.332031 261.78125 251.304688 C 262.253906 252.441406 263.035156 252.714844 264.15625 252.839844 C 267.84375 253.25 271.003906 251.34375 274.429688 250.628906 C 274.785156 250.558594 275.054688 250.238281 275.203125 249.902344 C 275.703125 248.734375 276.460938 248.566406 277.484375 249.257812 C 278.191406 249.738281 278.890625 249.59375 279.707031 249.441406 C 281.664062 249.078125 283.652344 249.675781 285.640625 249.453125 C 285.921875 249.417969 286.183594 249.710938 286.335938 249.980469 C 287.109375 251.402344 288.410156 251.257812 289.664062 251.054688 C 291.167969 250.8125 291.644531 249.371094 290.585938 248.242188 C 289.96875 247.59375 289.507812 247.003906 289.777344 246.007812 C 290.335938 246.496094 291.546875 248.632812 291.652344 249.230469 C 291.808594 250.085938 291.101562 250.492188 290.742188 251.09375 C 290.148438 252.09375 290.273438 253.054688 291.191406 253.84375 C 292.246094 254.761719 297.324219 254.777344 298.410156 253.871094 C 298.597656 253.71875 298.769531 253.53125 298.839844 253.304688 C 299.230469 252.082031 300.363281 251.734375 301.285156 251.855469 C 302.984375 252.082031 304.417969 251.25 306.007812 251.105469 C 306.851562 251.023438 307.792969 250.746094 308.5 251.050781 C 310.878906 252.082031 312.773438 250.628906 314.824219 250.027344 C 316.570312 249.515625 318.175781 248.09375 320.15625 249.402344 C 320.632812 249.710938 321.195312 249.253906 321.714844 249.203125 C 323.054688 249.066406 324.066406 247.878906 325.414062 247.996094 C 326.773438 248.117188 328.488281 247.3125 329.289062 249.296875 C 329.425781 249.628906 330.054688 249.5625 330.480469 249.550781 C 330.964844 249.542969 331.449219 249.542969 331.867188 249.847656 C 332.632812 250.410156 333.355469 250.125 334.21875 249.996094 C 336.09375 249.714844 337.945312 249.429688 339.890625 250.460938 C 341.96875 251.574219 344.546875 251.683594 346.683594 250.828125 C 348.824219 249.96875 350.644531 248.734375 353.191406 249.003906 C 355.496094 249.253906 357.757812 248.039062 359.914062 247.371094 C 363.34375 246.324219 365.367188 244.195312 362.273438 241.433594 C 362.179688 241.351562 362.164062 241.226562 362.203125 241.105469 C 362.414062 240.785156 362.769531 240.632812 363.09375 240.523438 C 366.671875 239.339844 367.875 236.441406 368.414062 233.101562 C 368.652344 231.613281 367.910156 230.984375 366.417969 231.214844 C 365.375 231.378906 364.605469 232.039062 363.796875 232.636719 C 364.175781 232.332031 364.503906 231.980469 364.855469 231.648438 C 365.246094 231.277344 365.617188 230.878906 366.0625 230.5625 C 366.550781 230.21875 367.023438 229.878906 367.699219 229.941406 C 370.046875 230.171875 370.101562 230.125 370.835938 227.882812 C 371.03125 227.304688 371.308594 226.773438 371.59375 226.242188 C 372.4375 224.675781 372.28125 224.320312 370.582031 223.976562 C 369.414062 223.738281 369.027344 222.980469 369.507812 221.855469 C 369.832031 221.097656 370.484375 220.640625 371.140625 220.21875 C 371.617188 219.914062 372.171875 219.554688 372.078125 218.996094 C 371.800781 217.28125 372.460938 215.683594 372.558594 214.035156 C 372.699219 211.863281 372.292969 209.734375 371.320312 207.75 C 370.875 206.851562 370.832031 206.027344 371.765625 205.359375 C 372.570312 204.789062 372.625 203.941406 372.640625 203.007812 C 372.691406 199.855469 372.804688 196.710938 372.71875 193.542969 C 372.648438 190.5 372.707031 187.824219 370.5625 185.261719 C 368.507812 182.816406 362.6875 179.972656 359.535156 180.746094 C 357.585938 181.21875 355.710938 181.085938 353.835938 180.652344 C 352.867188 180.429688 351.917969 180.410156 350.96875 180.464844 C 346.480469 180.734375 341.976562 180.710938 337.484375 180.796875 C 333.476562 180.875 329.449219 180.574219 325.421875 180.785156 C 323.324219 180.894531 321.246094 181.324219 319.128906 181.09375 C 316.136719 180.777344 313.152344 181.285156 310.1875 181.449219 C 304.683594 181.753906 299.167969 181.765625 293.667969 182.25 C 289.6875 182.597656 285.707031 182.984375 281.683594 182.949219 C 279.238281 182.929688 276.765625 183.222656 274.304688 183.242188 C 267.015625 183.296875 259.753906 183.667969 252.472656 184.664062 C 252.898438 184.660156 253.242188 184.570312 253.527344 184.324219 C 256.03125 182.164062 259.285156 181.429688 262.1875 180.121094 C 264.191406 179.214844 265.933594 178.207031 267.640625 176.875 C 269.972656 175.054688 272.003906 172.859375 274.855469 171.632812 C 275.949219 171.167969 277.390625 170.648438 278.144531 169.574219 C 279.15625 168.121094 280.695312 167.410156 282.046875 166.484375 C 284.066406 165.085938 285.363281 162.980469 287.324219 161.539062 C 287.84375 161.15625 288.078125 160.320312 288.144531 159.574219 C 288.207031 158.902344 288.546875 158.320312 288.71875 157.695312 C 289.210938 155.886719 290.550781 154.375 290.839844 152.582031 C 291.328125 149.574219 291.558594 146.515625 291.945312 143.484375 C 292.308594 140.621094 292.125 137.722656 292.4375 134.847656 C 292.960938 129.945312 291.824219 125.476562 288.785156 121.527344 C 288.257812 120.839844 287.375 120.5 286.996094 119.769531 C 285.925781 117.710938 283.964844 117.003906 281.992188 116.582031 C 277.316406 115.574219 272.53125 115.226562 267.859375 114.113281 C 264.347656 113.277344 260.71875 113.367188 257.113281 113.382812 C 253.230469 113.394531 249.328125 113.078125 245.464844 113.21875 C 242.996094 113.3125 240.609375 112.910156 238.1875 112.816406 C 234.066406 112.652344 229.90625 112.578125 225.820312 112.667969 C 220.25 112.789062 214.6875 112.414062 209.117188 112.542969 C 205.402344 112.628906 201.667969 112.855469 197.917969 112.734375 C 193.039062 112.578125 188.117188 112.722656 183.210938 113.035156 C 179.902344 113.246094 176.496094 112.765625 173.175781 113.03125 C 167.453125 113.492188 161.734375 113.90625 155.992188 113.925781 C 151.214844 113.9375 146.472656 114.691406 141.660156 114.402344 C 138.394531 114.207031 135.0625 114.375 131.8125 114.976562 C 129.222656 115.460938 126.585938 115.5625 124.007812 116.019531 C 121.839844 116.40625 119.558594 115.816406 117.484375 116.84375 C 117.339844 116.917969 117.113281 116.851562 116.953125 116.773438 C 115.636719 116.109375 114.277344 116.390625 112.898438 116.5 C 111.519531 116.609375 110.207031 117.042969 108.796875 117.0625 C 105.703125 117.101562 102.640625 117.476562 99.5 117.261719 C 96.28125 117.042969 93.050781 118.078125 89.773438 118.339844 C 86.488281 118.601562 83.148438 119.273438 79.839844 119.734375 C 77.535156 120.054688 75.160156 120.390625 72.835938 120.109375 C 68.492188 119.585938 64.246094 120.695312 59.925781 120.734375 C 57.671875 120.753906 55.308594 121.207031 52.980469 121.308594 C 51.957031 121.351562 50.957031 121.445312 49.960938 121.753906 C 48.941406 122.078125 48.128906 122.09375 47.410156 121.933594 C 47.371094 121.953125 47.347656 121.980469 47.304688 121.992188 C 34.855469 125.289062 33.746094 136.265625 33.746094 136.265625 L 33.714844 136.269531 C 33.738281 136.496094 33.761719 136.722656 33.722656 136.980469 C 33.21875 139.730469 33.992188 142.503906 33.605469 145.242188 C 33.3125 147.300781 34.246094 149.132812 34.515625 151.085938 C 34.914062 154.035156 35.308594 156.992188 36.984375 159.671875 C 37.761719 160.910156 37.96875 162.546875 39.007812 163.738281 C 39.15625 163.90625 39.113281 164.203125 39.175781 164.4375 C 40.167969 168.3125 41.585938 171.960938 44.605469 174.785156 C 45.132812 175.273438 45.761719 175.65625 46.199219 176.246094 C 48.804688 179.765625 52.621094 181.226562 56.605469 182.398438 C 57.003906 182.515625 57.425781 182.621094 57.847656 182.582031 C 61.609375 182.253906 65.371094 181.753906 68.988281 180.714844 C 71.609375 179.960938 74.222656 179.488281 76.925781 179.289062 C 79.175781 179.125 81.425781 178.808594 83.597656 178.097656 C 85.308594 177.539062 87.089844 177.234375 88.761719 176.527344 C 90.003906 176.007812 91.417969 176.972656 92.460938 176.539062 C 94.742188 175.585938 97.105469 175.320312 99.476562 175.035156 C 100.089844 174.957031 100.683594 174.808594 101.277344 174.664062 C 101.8125 174.464844 102.414062 174.332031 102.976562 174.175781 C 104.207031 173.832031 105.425781 173.445312 106.652344 173.070312 C 107.003906 172.960938 107.359375 172.855469 107.710938 172.753906 C 108.960938 172.359375 110.191406 171.925781 111.421875 171.484375 C 111.773438 171.179688 112.136719 170.871094 112.644531 170.765625 C 113.3125 170.636719 113.976562 170.46875 114.636719 170.3125 C 114.757812 170.257812 114.890625 170.226562 115.011719 170.171875 C 116.628906 169.515625 118.53125 169.359375 120.304688 169.160156 C 120.324219 169.15625 120.34375 169.152344 120.363281 169.144531 C 120.722656 169.101562 121.058594 169 121.375 168.875 C 121.960938 168.636719 122.511719 168.339844 123.074219 168.074219 C 123.605469 167.8125 124.148438 167.574219 124.769531 167.53125 C 124.15625 167.589844 123.609375 167.820312 123.074219 168.074219 C 122.515625 168.351562 121.964844 168.648438 121.375 168.875 C 121.058594 169 120.714844 169.085938 120.363281 169.144531 C 120.34375 169.152344 120.324219 169.160156 120.304688 169.160156 C 120.25 169.171875 120.207031 169.199219 120.15625 169.199219 C 118.300781 169.425781 116.46875 169.878906 114.636719 170.3125 C 113.570312 170.742188 112.496094 171.105469 111.421875 171.484375 C 111.054688 171.804688 110.695312 172.121094 110.199219 172.195312 C 109.355469 172.316406 108.527344 172.523438 107.710938 172.753906 C 107.359375 172.863281 107.003906 172.964844 106.652344 173.070312 C 104.867188 173.632812 103.09375 174.238281 101.277344 174.664062 C 101.082031 174.742188 100.867188 174.785156 100.707031 174.890625 C 97.511719 177 93.59375 176.820312 90.222656 178.363281 C 88.042969 179.359375 85.589844 179.769531 83.480469 180.824219 C 80.054688 182.535156 76.367188 183.285156 72.792969 184.425781 C 70.046875 185.304688 67.195312 185.851562 64.503906 186.875 C 61.472656 188.035156 58.445312 189.179688 55.328125 190.085938 C 50.363281 191.53125 45.507812 193.28125 40.6875 195.125 C 37.539062 196.332031 34.285156 197.203125 31.15625 198.40625 C 27.902344 199.660156 24.5 200.570312 21.40625 202.175781 C 19.734375 203.042969 18.027344 203.785156 16.238281 204.289062 C 11.417969 205.652344 7.722656 208.308594 5.59375 212.988281 C 3.65625 217.253906 2.417969 221.476562 5.511719 225.761719 C 5.695312 226.003906 5.804688 226.3125 5.78125 226.613281 C 5.628906 228.269531 6.394531 229.636719 7.113281 231.042969 C 8.089844 232.960938 9.039062 234.871094 9.683594 236.980469 C 10.273438 238.921875 12.4375 240.125 14.117188 240.652344 C 15.875 241.207031 17.925781 241.554688 19.9375 241.535156 C 21.707031 241.511719 23.121094 242.234375 24.28125 243.914062 C 25.3125 245.417969 26.527344 247.09375 28.484375 247.722656 C 32.546875 249.035156 36.648438 249.226562 40.851562 248.386719 C 42.421875 248.070312 44.050781 247.515625 45.59375 247.613281 C 49.917969 247.890625 54.085938 247.21875 58.222656 246.132812 C 59.285156 245.855469 60.449219 246.25 61.433594 245.761719 C 64.503906 244.257812 67.679688 243.0625 70.910156 241.941406 C 72.542969 241.378906 74.136719 240.636719 75.792969 240.109375 C 77.105469 239.695312 78.363281 239.296875 79.59375 238.589844 C 80.96875 237.796875 82.851562 238.195312 84.253906 237.15625 C 84.363281 237.074219 84.59375 237.199219 84.765625 237.261719 C 87.050781 238.101562 89.152344 237.625 91.078125 236.28125 C 91.742188 235.820312 92.195312 235.710938 93 236.105469 C 95.050781 237.101562 97.835938 236.246094 98.71875 234.519531 C 99.964844 232.074219 101.425781 231.550781 104.136719 232.078125 C 105.566406 232.355469 107.328125 232.863281 108.457031 231.40625 C 109.242188 230.390625 110.058594 230.304688 111.128906 230.519531 C 111.6875 230.628906 112.246094 230.976562 113.054688 230.472656 C 112.234375 231.074219 111.480469 231.085938 110.792969 231.234375 C 109.648438 231.484375 108.820312 232.007812 108.953125 233.265625 C 109.085938 234.542969 109.953125 235.039062 111.214844 235.105469 C 113.398438 235.214844 115.53125 234.917969 117.671875 234.578125 C 118.421875 234.460938 119.128906 234.105469 119.410156 233.421875 C 120.023438 231.949219 121.210938 231.359375 122.621094 231.105469 C 123.769531 230.898438 124.59375 230.308594 125.292969 229.425781 C 127.082031 227.148438 129.707031 227.632812 132.109375 227.410156 C 132.378906 227.382812 132.59375 227.648438 132.792969 227.890625 C 133.714844 228.988281 134.660156 228.6875 135.546875 227.832031 C 136.207031 227.195312 136.902344 227 137.835938 227.171875 C 139.550781 227.488281 141.214844 226.046875 142.988281 226.914062 C 143.105469 226.972656 143.304688 226.78125 143.464844 226.699219 C 144.507812 226.175781 145.621094 226.058594 146.777344 225.953125 C 149.199219 225.730469 151.894531 226.523438 153.765625 224.039062 C 154.273438 223.363281 155.09375 223.757812 155.230469 224.5625 C 155.488281 226.125 156.339844 226.144531 157.40625 225.496094 C 158.945312 224.558594 160.742188 224.609375 162.386719 224.03125 C 163.5625 223.609375 164.808594 224.074219 166.0625 225.464844 C 163.785156 225.3125 162.859375 226.699219 161.847656 227.972656 C 161.390625 228.550781 160.769531 228.96875 160.074219 229.167969 C 156.753906 230.109375 153.511719 231.570312 149.898438 230.886719 C 149.265625 230.769531 148.597656 231.03125 147.949219 231.128906 C 146.109375 231.398438 144.746094 232.78125 143.070312 233.253906 C 136.605469 235.0625 130.230469 237.21875 123.636719 238.546875 C 121.386719 239.003906 119.328125 240.109375 117.109375 240.5625 C 113.285156 241.332031 109.582031 242.527344 105.832031 243.546875 C 101.5625 244.703125 97.402344 246.300781 93.113281 247.339844 C 88.738281 248.40625 84.667969 250.332031 80.246094 251.28125 C 76.050781 252.179688 72.199219 254.335938 67.929688 255.199219 C 64.535156 255.890625 61.324219 257.265625 58.070312 258.503906 C 53.207031 260.355469 48.269531 262.019531 43.296875 263.59375 C 38.722656 265.039062 34.285156 266.917969 29.792969 268.609375 C 25.742188 270.132812 21.839844 272.015625 17.851562 273.6875 C 15.230469 274.789062 12.4375 275.636719 10.046875 277.257812 C 8.746094 278.148438 7.558594 279.171875 5.871094 279.171875 C 5.429688 279.171875 5.09375 279.441406 4.804688 279.769531 C 3.71875 281.007812 2.558594 282.191406 2.246094 283.902344 C 2.3125 288.847656 2.378906 293.792969 2.441406 298.738281 C 3.261719 302.542969 4.53125 306.15625 6.914062 309.292969 C 7.019531 309.433594 7.113281 309.617188 7.121094 309.789062 C 7.191406 311.136719 7.746094 311.949219 9.160156 312.367188 C 10.34375 312.722656 11.46875 312.964844 12.679688 312.738281 C 12.984375 312.675781 13.347656 312.589844 13.460938 312.332031 C 14.421875 310.246094 16.394531 310.574219 18.121094 310.328125 C 18.617188 310.25 19.117188 310.320312 19.402344 310.789062 C 19.738281 311.339844 19.308594 311.65625 18.96875 312.007812 C 17.847656 313.167969 16.617188 314.230469 16.066406 315.851562 C 15.847656 316.480469 15.425781 317.03125 15.851562 317.703125 C 16.316406 318.425781 17.15625 318.488281 17.773438 318.324219 "/>
</g>
<path style=" stroke:none;fill-rule:nonzero;fill:rgb(94.509888%,71.759033%,77.648926%);fill-opacity:1;" d="M 123.074219 168.074219 C 123.609375 167.820312 124.15625 167.589844 124.769531 167.53125 C 124.148438 167.574219 123.605469 167.8125 123.074219 168.074219 "/>
<path style=" stroke:none;fill-rule:nonzero;fill:rgb(94.509888%,71.759033%,77.648926%);fill-opacity:1;" d="M 102.976562 174.175781 C 102.414062 174.332031 101.8125 174.464844 101.277344 174.664062 C 103.09375 174.238281 104.867188 173.632812 106.652344 173.070312 C 105.425781 173.445312 104.207031 173.832031 102.976562 174.175781 "/>
<path style=" stroke:none;fill-rule:nonzero;fill:rgb(94.509888%,71.759033%,77.648926%);fill-opacity:1;" d="M 120.363281 169.144531 C 120.714844 169.085938 121.058594 169 121.375 168.875 C 121.058594 169 120.722656 169.101562 120.363281 169.144531 "/>
<path style=" stroke:none;fill-rule:nonzero;fill:rgb(100%,100%,100%);fill-opacity:1;" d="M 99.09375 95.628906 C 106.769531 84.382812 123.648438 75.902344 142.5625 83.851562 C 171.167969 95.875 185.277344 88.902344 192.070312 80.941406 C 196.289062 76 198.332031 69.847656 198.726562 63.4375 C 210.777344 70.53125 222.28125 80.863281 224.214844 94.253906 C 222.226562 101.671875 218.65625 108.175781 213.589844 113.28125 C 203.394531 123.5625 188.230469 126.90625 171.976562 122.453125 C 144.890625 115.035156 118.730469 109.527344 96.765625 116.738281 C 91.855469 107.671875 97.109375 98.527344 99.09375 95.628906 "/>
<path style=" stroke:none;fill-rule:nonzero;fill:rgb(100%,100%,100%);fill-opacity:1;" d="M 106.449219 218.9375 L 104.945312 220.441406 C 103.1875 222.203125 100.976562 223.296875 98.535156 223.644531 C 90.015625 223.476562 81.875 218.105469 76.144531 208.832031 C 67.246094 194.429688 66.433594 175.28125 74.070312 160.039062 C 91.578125 125.105469 118.140625 125.386719 167.476562 138.902344 C 189.820312 145.019531 211.035156 140.0625 225.683594 125.292969 C 232.910156 118.007812 237.964844 108.847656 240.695312 98.539062 C 253.160156 106.554688 268.28125 124.378906 271.363281 148.296875 C 267.542969 155.082031 261.941406 161.683594 254.574219 168.066406 C 236.007812 184.144531 202.738281 177.402344 176.007812 171.984375 C 161.820312 169.113281 149.578125 166.625 140.484375 167.671875 C 125.570312 169.386719 114.234375 177.015625 109.390625 188.59375 C 105.824219 197.117188 106.246094 206.597656 110.40625 215.644531 C 109.011719 216.609375 107.6875 217.699219 106.449219 218.9375 "/>
<path style=" stroke:none;fill-rule:nonzero;fill:rgb(100%,100%,100%);fill-opacity:1;" d="M 124.800781 321.613281 C 124.792969 321.507812 124.769531 321.402344 124.75 321.296875 L 108.828125 238.195312 C 111.847656 236.796875 114.617188 234.875 116.992188 232.5 L 118.492188 230.996094 C 122.929688 226.5625 130.140625 226.5625 134.566406 230.992188 L 136.074219 232.5 C 139.324219 235.753906 143.179688 238.042969 147.273438 239.390625 L 159.964844 334.09375 L 139.324219 334.09375 C 132.015625 334.09375 125.910156 328.84375 124.800781 321.613281 "/>
<path style=" stroke:none;fill-rule:nonzero;fill:rgb(100%,100%,100%);fill-opacity:1;" d="M 177.15625 334.09375 L 164.488281 239.570312 C 168.792969 238.253906 172.84375 235.902344 176.242188 232.5 L 177.746094 230.992188 C 182.175781 226.5625 189.386719 226.5625 193.824219 230.992188 L 195.324219 232.5 C 198.726562 235.902344 202.777344 238.253906 207.078125 239.570312 L 194.414062 334.09375 L 177.15625 334.09375 "/>
<path style=" stroke:none;fill-rule:nonzero;fill:rgb(100%,100%,100%);fill-opacity:1;" d="M 226.964844 334.09375 L 211.601562 334.09375 L 224.296875 239.390625 C 228.390625 238.042969 232.246094 235.753906 235.496094 232.5 L 236.992188 230.992188 C 241.429688 226.5625 248.644531 226.5625 253.074219 230.992188 L 253.078125 230.996094 C 253.078125 230.996094 234.203125 346.984375 226.964844 334.09375 "/>
<path style=" stroke:none;fill-rule:nonzero;fill:rgb(100%,100%,100%);fill-opacity:1;" d="M 269.40625 222.480469 C 268.390625 221.953125 267.457031 221.273438 266.625 220.441406 L 265.121094 218.9375 C 259.753906 213.566406 252.625 210.613281 245.035156 210.613281 C 237.449219 210.613281 230.3125 213.566406 224.949219 218.9375 L 223.449219 220.441406 C 221.601562 222.292969 219.273438 223.355469 216.863281 223.664062 C 216.347656 223.652344 215.839844 223.6875 215.34375 223.765625 C 212.453125 223.746094 209.570312 222.644531 207.371094 220.445312 L 205.867188 218.9375 C 194.792969 207.851562 176.773438 207.851562 165.699219 218.9375 L 164.195312 220.441406 C 161.996094 222.644531 159.113281 223.746094 156.230469 223.765625 C 155.730469 223.6875 155.222656 223.652344 154.707031 223.664062 C 152.292969 223.355469 149.964844 222.292969 148.125 220.445312 L 146.621094 218.9375 C 141.191406 213.515625 134.101562 210.746094 126.980469 210.636719 C 123.890625 205.230469 123.191406 199.753906 125.101562 195.183594 C 127.5 189.453125 133.8125 185.605469 142.429688 184.617188 C 148.84375 183.875 160.394531 186.21875 172.625 188.699219 C 203.011719 194.855469 240.824219 202.515625 265.722656 180.957031 C 274.144531 173.667969 280.355469 166.351562 284.816406 159.15625 C 293.195312 166.449219 300.222656 192.878906 291.445312 211.257812 C 285.351562 215.867188 277.941406 219.671875 269.40625 222.480469 "/>
<g clip-path="url(#clip5)" clip-rule="nonzero">
<path style=" stroke:none;fill-rule:nonzero;fill:rgb(31.759644%,21.569824%,14.118958%);fill-opacity:1;" d="M 213.585938 113.28125 C 203.390625 123.5625 188.222656 126.90625 171.96875 122.453125 C 144.890625 115.039062 118.738281 109.53125 96.777344 116.734375 C 91.875 107.667969 97.101562 98.527344 99.089844 95.628906 C 106.765625 84.382812 123.640625 75.902344 142.554688 83.851562 C 171.160156 95.875 185.269531 88.902344 192.066406 80.941406 C 200.503906 71.054688 200.230469 56.335938 195.488281 44.359375 C 199.472656 45.570312 204.617188 47.800781 209.867188 51.480469 C 215.078125 55.136719 223.957031 62.925781 225.796875 74.28125 C 227.046875 89.960938 222.835938 103.957031 213.585938 113.28125 Z M 294.371094 121.179688 C 293.214844 107.417969 287.570312 95.578125 282.273438 87.253906 C 272.957031 72.613281 260.992188 62.445312 254.691406 57.6875 C 240.753906 47.164062 233.988281 46.515625 230.585938 47.226562 C 220.976562 36.539062 207.796875 29.824219 197.992188 27.351562 C 185.390625 24.171875 179.625 27.777344 177.003906 31.367188 C 175.582031 33.308594 172.769531 38.636719 177.371094 46.0625 C 182.398438 54.183594 183.195312 65.082031 179.113281 69.863281 C 174.78125 74.941406 163.855469 74.308594 149.152344 68.128906 C 136.832031 62.949219 123.867188 62.308594 111.667969 66.273438 C 100.753906 69.820312 91.289062 76.828125 85.023438 86.007812 C 76.507812 98.480469 75.453125 112.664062 81.574219 124.40625 C 72.960938 130.519531 65.28125 139.535156 58.839844 152.394531 C 48.605469 172.808594 49.710938 198.480469 61.644531 217.800781 C 70.644531 232.367188 84.234375 240.714844 98.9375 240.714844 C 98.960938 240.714844 98.984375 240.714844 99.011719 240.714844 C 103.714844 240.703125 107.523438 236.878906 107.511719 232.171875 C 107.503906 227.464844 103.691406 223.660156 98.996094 223.660156 C 98.980469 223.660156 98.960938 223.660156 98.9375 223.660156 C 90.273438 223.660156 81.960938 218.257812 76.132812 208.832031 C 67.238281 194.429688 66.425781 175.28125 74.0625 160.039062 C 91.574219 125.105469 118.132812 125.386719 167.472656 138.902344 C 189.8125 145.019531 211.03125 140.0625 225.679688 125.292969 C 238.167969 112.699219 244.074219 94.472656 242.835938 74.417969 C 242.890625 73.800781 242.890625 73.167969 242.800781 72.523438 C 242.765625 72.273438 242.699219 72.042969 242.65625 71.789062 C 242.597656 71.140625 242.601562 70.511719 242.527344 69.859375 C 254.121094 78.25 270.863281 94.855469 275.960938 114.328125 C 280.945312 133.375 273.746094 151.453125 254.5625 168.066406 C 235.996094 184.144531 202.734375 177.402344 176 171.984375 C 161.816406 169.113281 149.570312 166.625 140.476562 167.671875 C 125.5625 169.386719 114.230469 177.015625 109.382812 188.59375 C 104.589844 200.042969 106.996094 213.226562 115.988281 224.753906 C 118.882812 228.46875 124.234375 229.125 127.941406 226.230469 C 131.652344 223.332031 132.3125 217.976562 129.417969 214.261719 C 124.324219 207.734375 122.753906 200.78125 125.097656 195.183594 C 127.492188 189.453125 133.808594 185.605469 142.421875 184.617188 C 148.835938 183.875 160.390625 186.21875 172.621094 188.699219 C 203.003906 194.855469 240.816406 202.515625 265.710938 180.957031 C 281.832031 166.996094 289.875 152.953125 292.984375 139.855469 C 304.03125 147.292969 311.101562 160.453125 310.972656 174.789062 C 310.773438 197.023438 294.21875 215.171875 266.683594 223.332031 C 262.175781 224.671875 259.597656 229.410156 260.9375 233.929688 C 262.035156 237.632812 265.425781 240.035156 269.101562 240.035156 C 269.902344 240.035156 270.71875 239.917969 271.523438 239.679688 C 289.84375 234.25 304.167969 225.285156 314.109375 213.03125 C 323.074219 201.972656 327.878906 188.804688 328.007812 174.941406 C 328.21875 151.148438 314.917969 130.300781 294.371094 121.179688 "/>
</g>
<g clip-path="url(#clip6)" clip-rule="nonzero">
<path style=" stroke:none;fill-rule:nonzero;fill:rgb(31.759644%,21.569824%,14.118958%);fill-opacity:1;" d="M 246.8125 321.296875 C 246.789062 321.402344 246.773438 321.507812 246.757812 321.613281 C 245.652344 328.84375 239.546875 334.09375 232.242188 334.09375 L 211.597656 334.09375 L 224.289062 239.367188 C 228.386719 238.019531 232.242188 235.753906 235.492188 232.5 L 236.992188 230.992188 C 241.425781 226.5625 248.636719 226.5625 253.070312 230.992188 L 253.070312 230.996094 L 254.570312 232.5 C 256.941406 234.875 259.71875 236.796875 262.738281 238.195312 Z M 124.796875 321.613281 C 124.78125 321.507812 124.769531 321.402344 124.746094 321.296875 L 108.824219 238.195312 C 111.835938 236.796875 114.613281 234.875 116.988281 232.5 L 118.488281 230.996094 C 122.917969 226.5625 130.136719 226.5625 134.5625 230.992188 L 136.066406 232.5 C 139.316406 235.753906 143.167969 238.019531 147.265625 239.367188 L 159.957031 334.09375 L 139.320312 334.09375 C 132.011719 334.09375 125.902344 328.84375 124.796875 321.613281 Z M 176.234375 232.5 L 177.738281 230.992188 C 182.171875 226.5625 189.382812 226.5625 193.8125 230.992188 L 195.316406 232.5 C 198.714844 235.902344 202.769531 238.246094 207.074219 239.558594 L 194.410156 334.09375 L 177.152344 334.09375 L 164.476562 239.5625 C 168.78125 238.246094 172.839844 235.902344 176.234375 232.5 Z M 279.40625 227.109375 C 277.984375 225.191406 275.824219 223.957031 273.449219 223.710938 C 270.839844 223.429688 268.476562 222.304688 266.613281 220.441406 L 265.117188 218.9375 C 259.753906 213.566406 252.617188 210.613281 245.027344 210.613281 C 237.445312 210.613281 230.308594 213.566406 224.941406 218.9375 L 223.441406 220.441406 C 221.445312 222.4375 218.882812 223.488281 216.273438 223.683594 C 216.082031 223.695312 215.894531 223.71875 215.707031 223.738281 C 212.695312 223.820312 209.660156 222.738281 207.367188 220.445312 L 205.863281 218.9375 C 194.789062 207.851562 176.765625 207.851562 165.691406 218.9375 L 164.191406 220.441406 C 161.894531 222.734375 158.867188 223.820312 155.851562 223.738281 C 155.664062 223.71875 155.476562 223.695312 155.28125 223.683594 C 152.671875 223.488281 150.109375 222.4375 148.113281 220.445312 L 146.609375 218.9375 C 135.539062 207.851562 117.511719 207.855469 106.441406 218.9375 L 104.941406 220.441406 C 103.078125 222.304688 100.71875 223.429688 98.101562 223.710938 C 95.730469 223.957031 93.574219 225.191406 92.152344 227.109375 C 90.734375 229.023438 90.175781 231.449219 90.625 233.792969 L 107.984375 324.363281 C 110.441406 339.894531 123.589844 351.144531 139.320312 351.144531 L 169.664062 351.144531 C 169.667969 351.144531 169.675781 351.148438 169.683594 351.148438 C 169.695312 351.148438 169.703125 351.144531 169.714844 351.144531 L 201.84375 351.144531 C 201.851562 351.144531 201.859375 351.148438 201.871094 351.148438 C 201.878906 351.148438 201.886719 351.144531 201.890625 351.144531 L 232.242188 351.144531 C 247.960938 351.144531 261.117188 339.894531 263.570312 324.363281 L 280.929688 233.792969 C 281.375 231.449219 280.824219 229.023438 279.40625 227.109375 "/>
</g>
</g>
</svg>
